<svg width="264" height="228" viewBox="0 0 264 228" fill="none" xmlns="http://www.w3.org/2000/svg">
<path d="M261.071 121.071C264.976 117.166 264.976 110.834 261.071 106.929L197.431 43.2893C193.526 39.3841 187.195 39.3841 183.289 43.2893C179.384 47.1946 179.384 53.5262 183.289 57.4315L239.858 114L183.289 170.569C179.384 174.474 179.384 180.805 183.289 184.711C187.195 188.616 193.526 188.616 197.431 184.711L261.071 121.071ZM15 20H129V0H15V20ZM129 208H15V228H129V208ZM20 213V15H0V213H20ZM124 140.347V213H144V140.347H124ZM124 15V83.84H144V15H124ZM15 208C17.7614 208 20 210.239 20 213H0C0 221.284 6.71575 228 15 228V208ZM129 228C137.284 228 144 221.284 144 213H124C124 210.239 126.239 208 129 208V228ZM129 20C126.239 20 124 17.7614 124 15H144C144 6.71572 137.284 0 129 0V20ZM15 0C6.71574 0 0 6.71571 0 15H20C20 17.7614 17.7614 20 15 20V0ZM77 124H254V104H77V124Z" fill="#425063"/>
</svg>
